name ./resultDataOpenSim/trcMotMarkerGrf/sub09/grf-13-02.mot
datacolumns 19
datarows 15
range 1.56800000 1.62400000
endheader

                time	     ground_force_vx	     ground_force_vy	     ground_force_vz	     ground_force_px	     ground_force_py	     ground_force_pz	   l_ground_force_vx	   l_ground_force_vy	   l_ground_force_vz	   l_ground_force_px	   l_ground_force_py	   l_ground_force_pz	     ground_torque_x	     ground_torque_y	     ground_torque_z	   l_ground_torque_x	   l_ground_torque_y	   l_ground_torque_z	
          1.56800000	        -34.54464133	        460.29699024	          2.92202084	          1.04305892	          0.00000000	          0.04229813	          0.00000000	          0.00000000	          0.00000000	          0.00000000	          0.00000000	          0.00000000	          0.00000000	          1.40862093	          0.00000000	          0.00000000	          0.00000000	          0.00000000	
          1.57200000	        -36.83796958	        455.56742559	          3.54122115	          1.04400259	          0.00000000	          0.04225942	          0.00000000	          0.00000000	          0.00000000	          0.00000000	          0.00000000	          0.00000000	          0.00000000	          1.58498708	          0.00000000	          0.00000000	          0.00000000	          0.00000000	
          1.57600000	        -39.23457335	        450.98397148	          3.33917359	          1.04499797	          0.00000000	          0.04225539	          0.00000000	          0.00000000	          0.00000000	          0.00000000	          0.00000000	          0.00000000	          0.00000000	          1.69574901	          0.00000000	          0.00000000	          0.00000000	          0.00000000	
          1.58000000	        -40.68959439	        446.57686745	          2.44001276	          1.04586574	          0.00000000	          0.04229197	          0.00000000	          0.00000000	          0.00000000	          0.00000000	          0.00000000	          0.00000000	          0.00000000	          1.72749986	          0.00000000	          0.00000000	          0.00000000	          0.00000000	
          1.58400000	        -40.45839546	        442.39191970	          1.09807081	          1.04645690	          0.00000000	          0.04236396	          0.00000000	          0.00000000	          0.00000000	          0.00000000	          0.00000000	          0.00000000	          0.00000000	          1.68542096	          0.00000000	          0.00000000	          0.00000000	          0.00000000	
          1.58800000	        -38.29158822	        438.45162730	         -0.36336484	          1.04671672	          0.00000000	          0.04246318	          0.00000000	          0.00000000	          0.00000000	          0.00000000	          0.00000000	          0.00000000	          0.00000000	          1.59235134	          0.00000000	          0.00000000	          0.00000000	          0.00000000	
          1.59200000	        -34.47579843	        434.78868526	         -1.62887475	          1.04667286	          0.00000000	          0.04257763	          0.00000000	          0.00000000	          0.00000000	          0.00000000	          0.00000000	          0.00000000	          0.00000000	          1.48164055	          0.00000000	          0.00000000	          0.00000000	          0.00000000	
          1.59600000	        -29.73101856	        431.48431490	         -2.45264048	          1.04643098	          0.00000000	          0.04268457	          0.00000000	          0.00000000	          0.00000000	          0.00000000	          0.00000000	          0.00000000	          0.00000000	          1.38747648	          0.00000000	          0.00000000	          0.00000000	          0.00000000	
          1.60000000	        -25.00420642	        428.64649923	         -2.69773333	          1.04613065	          0.00000000	          0.04276561	          0.00000000	          0.00000000	          0.00000000	          0.00000000	          0.00000000	          0.00000000	          0.00000000	          1.33710033	          0.00000000	          0.00000000	          0.00000000	          0.00000000	
          1.60400000	        -21.20374755	        426.36176277	         -2.34555127	          1.04594630	          0.00000000	          0.04280238	          0.00000000	          0.00000000	          0.00000000	          0.00000000	          0.00000000	          0.00000000	          0.00000000	          1.34711593	          0.00000000	          0.00000000	          0.00000000	          0.00000000	
          1.60800000	        -18.95276327	        424.68236673	         -1.47418823	          1.04599532	          0.00000000	          0.04278239	          0.00000000	          0.00000000	          0.00000000	          0.00000000	          0.00000000	          0.00000000	          0.00000000	          1.42303007	          0.00000000	          0.00000000	          0.00000000	          0.00000000	
          1.61200000	        -18.44056606	        423.64297618	         -0.22513368	          1.04626816	          0.00000000	          0.04270607	          0.00000000	          0.00000000	          0.00000000	          0.00000000	          0.00000000	          0.00000000	          0.00000000	          1.55974927	          0.00000000	          0.00000000	          0.00000000	          0.00000000	
          1.61600000	        -19.40358579	        423.26382212	          1.21872325	          1.04673864	          0.00000000	          0.04258783	          0.00000000	          0.00000000	          0.00000000	          0.00000000	          0.00000000	          0.00000000	          0.00000000	          1.74182474	          0.00000000	          0.00000000	          0.00000000	          0.00000000	
          1.62000000	        -21.20850062	        423.54024804	          2.64215067	          1.04730914	          0.00000000	          0.04244775	          0.00000000	          0.00000000	          0.00000000	          0.00000000	          0.00000000	          0.00000000	          0.00000000	          1.94435069	          0.00000000	          0.00000000	          0.00000000	          0.00000000	
          1.62400000	        -23.01081383	        424.42759186	          3.81842264	          1.04783710	          0.00000000	          0.04230778	          0.00000000	          0.00000000	          0.00000000	          0.00000000	          0.00000000	          0.00000000	          0.00000000	          2.13642375	          0.00000000	          0.00000000	          0.00000000	          0.00000000	
